<svg xmlns="http://www.w3.org/2000/svg" width="1200" height="675" viewBox="0 0 1200 675" role="img" aria-labelledby="title desc">
  <title id="title">AI Policy Starter Kit cover</title>
  <desc id="desc">Product cover for a practical AI usage policy starter kit.</desc>
  <rect width="1200" height="675" fill="#10231f"/>
  <rect x="770" y="78" width="300" height="440" rx="26" fill="#f4f1e8"/>
  <rect x="815" y="144" width="210" height="18" rx="9" fill="#2c6f62"/>
  <rect x="815" y="198" width="165" height="14" rx="7" fill="#89a69f"/>
  <rect x="815" y="244" width="205" height="14" rx="7" fill="#89a69f"/>
  <rect x="815" y="290" width="185" height="14" rx="7" fill="#89a69f"/>
  <rect x="815" y="382" width="122" height="44" rx="8" fill="#d7a948"/>
  <circle cx="1026" cy="510" r="94" fill="#2c6f62"/>
  <path d="M990 510l23 24 49-61" fill="none" stroke="#ffffff" stroke-width="18" stroke-linecap="round" stroke-linejoin="round"/>
  <text x="86" y="132" fill="#ffffff" font-family="Arial, sans-serif" font-size="25" font-weight="700">AUTOMATION KIT LIBRARY</text>
  <text x="86" y="265" fill="#ffffff" font-family="Georgia, serif" font-size="86" font-weight="600">AI Policy</text>
  <text x="86" y="362" fill="#ffffff" font-family="Georgia, serif" font-size="86" font-weight="600">Starter Kit</text>
  <text x="90" y="438" fill="#c9d6d1" font-family="Arial, sans-serif" font-size="30">Usage rules, approval gates, and rollout notes.</text>
  <g transform="translate(90 500)">
    <rect width="162" height="62" rx="10" fill="#ffffff"/>
    <text x="25" y="39" fill="#10231f" font-family="Arial, sans-serif" font-size="21" font-weight="700">Policy</text>
    <rect x="184" width="200" height="62" rx="10" fill="#e7eee9"/>
    <text x="210" y="39" fill="#10231f" font-family="Arial, sans-serif" font-size="21" font-weight="700">Approvals</text>
    <rect x="406" width="168" height="62" rx="10" fill="#d7a948"/>
    <text x="431" y="39" fill="#10231f" font-family="Arial, sans-serif" font-size="21" font-weight="700">Rollout</text>
  </g>
</svg>
