<svg xmlns="http://www.w3.org/2000/svg" width="1200" height="675" viewBox="0 0 1200 675" role="img" aria-labelledby="title desc">
  <title id="title">AI Email Triage Kit cover</title>
  <desc id="desc">Product cover for an AI email triage workflow kit.</desc>
  <rect width="1200" height="675" fill="#f7f7f3"/>
  <rect x="70" y="70" width="1060" height="535" rx="22" fill="#17201b"/>
  <circle cx="1040" cy="150" r="58" fill="#c89b3c"/>
  <rect x="130" y="130" width="420" height="56" rx="10" fill="#2f6f5e"/>
  <text x="154" y="166" fill="#ffffff" font-family="Arial, sans-serif" font-size="24" font-weight="700">AUTOMATION KIT LIBRARY</text>
  <text x="130" y="284" fill="#ffffff" font-family="Georgia, serif" font-size="78" font-weight="600">AI Email</text>
  <text x="130" y="374" fill="#ffffff" font-family="Georgia, serif" font-size="78" font-weight="600">Triage Kit</text>
  <text x="132" y="438" fill="#c5d0ca" font-family="Arial, sans-serif" font-size="28">Classify. Summarize. Route. Draft safely.</text>
  <g transform="translate(720 220)">
    <rect width="260" height="72" rx="14" fill="#ffffff"/>
    <rect y="96" width="330" height="72" rx="14" fill="#e8eee9"/>
    <rect y="192" width="290" height="72" rx="14" fill="#ffffff"/>
    <circle cx="34" cy="36" r="12" fill="#2f6f5e"/>
    <circle cx="34" cy="132" r="12" fill="#c89b3c"/>
    <circle cx="34" cy="228" r="12" fill="#2f6f5e"/>
    <rect x="64" y="25" width="155" height="12" rx="6" fill="#607067"/>
    <rect x="64" y="121" width="210" height="12" rx="6" fill="#607067"/>
    <rect x="64" y="217" width="175" height="12" rx="6" fill="#607067"/>
    <rect x="64" y="45" width="105" height="10" rx="5" fill="#d7ddd4"/>
    <rect x="64" y="141" width="130" height="10" rx="5" fill="#b8c2bc"/>
    <rect x="64" y="237" width="118" height="10" rx="5" fill="#d7ddd4"/>
  </g>
</svg>
