<svg xmlns="http://www.w3.org/2000/svg" width="1200" height="675" viewBox="0 0 1200 675" role="img" aria-labelledby="title desc">
  <title id="title">AI SOP Generator Kit cover</title>
  <desc id="desc">Product cover for an AI SOP generator workflow kit.</desc>
  <rect width="1200" height="675" fill="#f5f6f2"/>
  <rect x="70" y="70" width="1060" height="535" rx="22" fill="#ffffff" stroke="#d9ded5" stroke-width="3"/>
  <rect x="130" y="130" width="430" height="56" rx="10" fill="#2f6f5e"/>
  <text x="154" y="166" fill="#ffffff" font-family="Arial, sans-serif" font-size="24" font-weight="700">AUTOMATION KIT LIBRARY</text>
  <text x="130" y="284" fill="#17201b" font-family="Georgia, serif" font-size="78" font-weight="600">AI SOP</text>
  <text x="130" y="374" fill="#17201b" font-family="Georgia, serif" font-size="78" font-weight="600">Generator Kit</text>
  <text x="132" y="438" fill="#607067" font-family="Arial, sans-serif" font-size="28">Turn messy notes into repeatable procedures.</text>
  <g transform="translate(760 165)">
    <rect width="285" height="350" rx="18" fill="#17201b"/>
    <rect x="34" y="44" width="164" height="16" rx="8" fill="#c89b3c"/>
    <rect x="34" y="92" width="220" height="12" rx="6" fill="#ffffff"/>
    <rect x="34" y="126" width="190" height="12" rx="6" fill="#c5d0ca"/>
    <rect x="34" y="178" width="28" height="28" rx="6" fill="#2f6f5e"/>
    <rect x="82" y="186" width="164" height="12" rx="6" fill="#ffffff"/>
    <rect x="34" y="230" width="28" height="28" rx="6" fill="#c89b3c"/>
    <rect x="82" y="238" width="138" height="12" rx="6" fill="#ffffff"/>
    <rect x="34" y="282" width="28" height="28" rx="6" fill="#2f6f5e"/>
    <rect x="82" y="290" width="178" height="12" rx="6" fill="#ffffff"/>
  </g>
</svg>
